<?xml version="1.0" encoding="UTF-8"?>
<svg width="1080px" height="1080px" viewBox="0 0 1080 1080" version="1.1" xmlns="http://www.w3.org/2000/svg" xmlns:xlink="http://www.w3.org/1999/xlink">
    <title>IG Copy</title>
    <defs>
        <path d="M543.55957,720.796875 C606.547852,720.796875 638.041992,699.703125 638.041992,657.515625 C638.041992,638.765625 633.061523,623.53125 623.100586,611.8125 C613.139648,600.09375 596.879883,594.234375 574.321289,594.234375 L525.981445,594.234375 C479.106445,594.234375 438.530273,584.200195 404.25293,564.131836 C369.975586,544.063477 344.487305,517.476562 327.788086,484.371094 C311.088867,451.265625 302.739258,414.058594 302.739258,372.75 C302.739258,341.988281 308.378906,313.277344 319.658203,286.617188 C330.9375,259.957031 347.050781,236.519531 367.998047,216.304688 C388.945312,196.089844 415.605469,180.196289 447.978516,168.624023 C480.351562,157.051758 516.606445,151.265625 556.743164,151.265625 C608.012695,151.265625 656.05957,158.663086 700.883789,173.458008 C745.708008,188.25293 783.061523,209.126953 812.944336,236.080078 L838.432617,217.183594 C805.620117,186.421875 764.604492,162.47168 715.385742,145.333008 C666.166992,128.194336 613.286133,119.625 556.743164,119.625 C520.708008,119.625 487.236328,123.946289 456.328125,132.588867 C425.419922,141.231445 398.759766,153.243164 376.347656,168.624023 C353.935547,184.004883 334.746094,202.242188 318.779297,223.335938 C302.8125,244.429688 290.874023,267.574219 282.963867,292.769531 C275.053711,317.964844 271.098633,344.625 271.098633,372.75 C271.098633,407.90625 276.665039,440.71875 287.797852,471.1875 C298.930664,501.65625 314.970703,528.462891 335.917969,551.607422 C356.865234,574.751953 383.671875,592.916016 416.337891,606.099609 C449.003906,619.283203 485.551758,625.875 525.981445,625.875 L573.442383,625.875 C586.333008,625.875 595.195312,628.731445 600.029297,634.444336 C604.863281,640.157227 607.280273,647.847656 607.280273,657.515625 C607.280273,667.476562 602.958984,675.240234 594.316406,680.806641 C585.673828,686.373047 568.754883,689.15625 543.55957,689.15625 C491.704102,689.15625 455.522461,684.46875 435.014648,675.09375 L409.526367,694.429688 C439.40918,712.007812 484.086914,720.796875 543.55957,720.796875 Z M543.55957,784.078125 C596.586914,784.078125 636.357422,772.359375 662.871094,748.921875 C689.384766,725.484375 702.641602,695.015625 702.641602,657.515625 C702.641602,620.601562 691.948242,590.279297 670.561523,566.548828 C649.174805,542.818359 617.094727,530.953125 574.321289,530.953125 L574.321289,530.953125 L525.981445,530.953125 C474.418945,530.953125 434.868164,516.084961 407.329102,486.348633 C379.790039,456.612305 366.020508,418.746094 366.020508,372.75 C366.020508,326.460938 382.353516,288.521484 415.019531,258.931641 C447.685547,229.341797 494.926758,214.546875 556.743164,214.546875 C598.637695,214.546875 637.749023,219.966797 674.077148,230.806641 C710.405273,241.646484 740.581055,256.880859 764.604492,276.509766 L764.604492,276.509766 L789.213867,256.734375 C762.260742,233.296875 728.496094,215.132812 687.919922,202.242188 C647.34375,189.351562 603.618164,182.90625 556.743164,182.90625 C486.430664,182.90625 431.791992,200.850586 392.827148,236.739258 C353.862305,272.62793 334.379883,317.964844 334.379883,372.75 C334.379883,427.535156 351.298828,472.87207 385.136719,508.760742 C418.974609,544.649414 465.922852,562.59375 525.981445,562.59375 L525.981445,562.59375 L573.881836,562.59375 C608.15918,562.59375 632.915039,571.30957 648.149414,588.741211 C663.383789,606.172852 671.000977,629.097656 671.000977,657.515625 C671.000977,685.933594 660.820312,708.858398 640.458984,726.290039 C620.097656,743.72168 587.797852,752.4375 543.55957,752.4375 C474.711914,752.4375 421.977539,739.839844 385.356445,714.644531 L385.356445,714.644531 L360.307617,733.980469 C381.108398,750.09375 407.548828,762.47168 439.628906,771.114258 C471.708984,779.756836 506.352539,784.078125 543.55957,784.078125 Z M543.55957,847.359375 C613.87207,847.359375 668.510742,829.415039 707.475586,793.526367 C746.44043,757.637695 765.922852,712.300781 765.922852,657.515625 C765.922852,603.609375 749.150391,558.492188 715.605469,522.164062 C682.060547,485.835938 635.551758,467.671875 576.079102,467.671875 L576.079102,467.671875 L525.981445,467.671875 C491.704102,467.671875 467.021484,459.029297 451.933594,441.744141 C436.845703,424.458984 429.301758,401.460938 429.301758,372.75 C429.301758,344.332031 439.482422,321.407227 459.84375,303.975586 C480.205078,286.543945 512.504883,277.828125 556.743164,277.828125 C625.297852,277.828125 677.885742,290.425781 714.506836,315.621094 L714.506836,315.621094 L739.555664,296.285156 C718.754883,280.171875 692.387695,267.793945 660.454102,259.151367 C628.520508,250.508789 593.950195,246.1875 556.743164,246.1875 C503.71582,246.1875 463.945312,257.90625 437.431641,281.34375 C410.917969,304.78125 397.661133,335.25 397.661133,372.75 C397.661133,410.25 408.354492,440.71875 429.741211,464.15625 C451.12793,487.59375 483.208008,499.3125 525.981445,499.3125 L525.981445,499.3125 L575.639648,499.3125 C626.616211,499.3125 665.800781,514.253906 693.193359,544.136719 C720.585938,574.019531 734.282227,611.8125 734.282227,657.515625 C734.282227,703.804688 717.949219,741.744141 685.283203,771.333984 C652.617188,800.923828 605.375977,815.71875 543.55957,815.71875 C501.665039,815.71875 462.480469,810.298828 426.005859,799.458984 C389.53125,788.619141 359.282227,773.384766 335.258789,753.755859 L335.258789,753.755859 L310.649414,773.53125 C337.602539,796.96875 371.44043,815.132812 412.163086,828.023438 C452.885742,840.914062 496.68457,847.359375 543.55957,847.359375 Z M543.55957,910.640625 C579.594727,910.640625 613.066406,906.319336 643.974609,897.676758 C674.882812,889.03418 701.542969,877.022461 723.955078,861.641602 C746.367188,846.260742 765.556641,828.023438 781.523438,806.929688 C797.490234,785.835938 809.428711,762.691406 817.338867,737.496094 C825.249023,712.300781 829.204102,685.640625 829.204102,657.515625 C829.204102,622.945312 823.78418,590.499023 812.944336,560.176758 C802.104492,529.854492 786.430664,503.047852 765.922852,479.756836 C745.415039,456.46582 719.267578,438.082031 687.480469,424.605469 C655.693359,411.128906 620.024414,404.390625 580.473633,404.390625 L580.473633,404.390625 L525.981445,404.390625 C513.383789,404.390625 504.741211,401.607422 500.053711,396.041016 C495.366211,390.474609 493.022461,382.710938 493.022461,372.75 C493.022461,362.789062 497.34375,355.025391 505.986328,349.458984 C514.628906,343.892578 531.547852,341.109375 556.743164,341.109375 C608.305664,341.109375 644.34082,345.796875 664.848633,355.171875 L664.848633,355.171875 L690.336914,335.835938 C660.454102,318.257812 615.922852,309.46875 556.743164,309.46875 C493.754883,309.46875 462.260742,330.5625 462.260742,372.75 C462.260742,391.792969 467.241211,407.100586 477.202148,418.672852 C487.163086,430.245117 503.422852,436.03125 525.981445,436.03125 L525.981445,436.03125 L579.155273,436.03125 C624.858398,436.03125 664.482422,446.285156 698.027344,466.792969 C731.572266,487.300781 756.547852,514.03418 772.954102,546.993164 C789.360352,579.952148 797.563477,616.792969 797.563477,657.515625 C797.563477,688.277344 791.923828,716.988281 780.644531,743.648438 C769.365234,770.308594 753.251953,793.746094 732.304688,813.960938 C711.357422,834.175781 684.697266,850.069336 652.324219,861.641602 C619.951172,873.213867 583.696289,879 543.55957,879 C492.290039,879 444.169922,871.602539 399.199219,856.807617 C354.228516,842.012695 316.801758,821.138672 286.918945,794.185547 L286.918945,794.185547 L261.430664,813.082031 C294.243164,843.84375 335.332031,867.793945 384.697266,884.932617 C434.0625,902.071289 487.016602,910.640625 543.55957,910.640625 Z" id="path-1"></path>
        <filter x="-0.8%" y="-0.4%" width="102.3%" height="101.5%" filterUnits="objectBoundingBox" id="filter-2">
            <feMorphology radius="0.5" operator="dilate" in="SourceAlpha" result="shadowSpreadOuter1"></feMorphology>
            <feOffset dx="2" dy="3" in="shadowSpreadOuter1" result="shadowOffsetOuter1"></feOffset>
            <feGaussianBlur stdDeviation="1" in="shadowOffsetOuter1" result="shadowBlurOuter1"></feGaussianBlur>
            <feColorMatrix values="0 0 0 0 0   0 0 0 0 0   0 0 0 0 0  0 0 0 0.671179285 0" type="matrix" in="shadowBlurOuter1"></feColorMatrix>
        </filter>
    </defs>
    <g id="IG-Copy" stroke="none" stroke-width="1" fill="none" fill-rule="evenodd">
        <g id="S" fill-rule="nonzero">
            <use fill="black" fill-opacity="1" filter="url(#filter-2)" xlink:href="#path-1"></use>
            <use fill="#2B738B" xlink:href="#path-1"></use>
        </g>
    </g>
</svg>