<?xml version="1.0" encoding="UTF-8"?>
<svg width="1080px" height="1080px" viewBox="0 0 1080 1080" version="1.1" xmlns="http://www.w3.org/2000/svg" xmlns:xlink="http://www.w3.org/1999/xlink">
    <title>samstep-light-t</title>
    <defs>
        <path d="M533.128906,745.171875 C596.117188,745.171875 627.611328,724.078125 627.611328,681.890625 C627.611328,663.140625 622.630859,647.90625 612.669922,636.1875 C602.708984,624.46875 586.449219,618.609375 563.890625,618.609375 L515.550781,618.609375 C468.675781,618.609375 428.099609,608.575195 393.822266,588.506836 C359.544922,568.438477 334.056641,541.851562 317.357422,508.746094 C300.658203,475.640625 292.308594,438.433594 292.308594,397.125 C292.308594,366.363281 297.948242,337.652344 309.227539,310.992188 C320.506836,284.332031 336.620117,260.894531 357.567383,240.679688 C378.514648,220.464844 405.174805,204.571289 437.547852,192.999023 C469.920898,181.426758 506.175781,175.640625 546.3125,175.640625 C597.582031,175.640625 645.628906,183.038086 690.453125,197.833008 C735.277344,212.62793 772.630859,233.501953 802.513672,260.455078 L828.001953,241.558594 C795.189453,210.796875 754.173828,186.84668 704.955078,169.708008 C655.736328,152.569336 602.855469,144 546.3125,144 C510.277344,144 476.805664,148.321289 445.897461,156.963867 C414.989258,165.606445 388.329102,177.618164 365.916992,192.999023 C343.504883,208.379883 324.31543,226.617188 308.348633,247.710938 C292.381836,268.804688 280.443359,291.949219 272.533203,317.144531 C264.623047,342.339844 260.667969,369 260.667969,397.125 C260.667969,432.28125 266.234375,465.09375 277.367188,495.5625 C288.5,526.03125 304.540039,552.837891 325.487305,575.982422 C346.43457,599.126953 373.241211,617.291016 405.907227,630.474609 C438.573242,643.658203 475.121094,650.25 515.550781,650.25 L563.011719,650.25 C575.902344,650.25 584.764648,653.106445 589.598633,658.819336 C594.432617,664.532227 596.849609,672.222656 596.849609,681.890625 C596.849609,691.851562 592.52832,699.615234 583.885742,705.181641 C575.243164,710.748047 558.324219,713.53125 533.128906,713.53125 C481.273438,713.53125 445.091797,708.84375 424.583984,699.46875 L399.095703,718.804688 C428.978516,736.382812 473.65625,745.171875 533.128906,745.171875 Z M533.128906,808.453125 C586.15625,808.453125 625.926758,796.734375 652.44043,773.296875 C678.954102,749.859375 692.210938,719.390625 692.210938,681.890625 C692.210938,644.976562 681.517578,614.654297 660.130859,590.923828 C638.744141,567.193359 606.664062,555.328125 563.890625,555.328125 L563.890625,555.328125 L515.550781,555.328125 C463.988281,555.328125 424.4375,540.459961 396.898438,510.723633 C369.359375,480.987305 355.589844,443.121094 355.589844,397.125 C355.589844,350.835938 371.922852,312.896484 404.588867,283.306641 C437.254883,253.716797 484.496094,238.921875 546.3125,238.921875 C588.207031,238.921875 627.318359,244.341797 663.646484,255.181641 C699.974609,266.021484 730.150391,281.255859 754.173828,300.884766 L754.173828,300.884766 L778.783203,281.109375 C751.830078,257.671875 718.06543,239.507812 677.489258,226.617188 C636.913086,213.726562 593.1875,207.28125 546.3125,207.28125 C476,207.28125 421.361328,225.225586 382.396484,261.114258 C343.431641,297.00293 323.949219,342.339844 323.949219,397.125 C323.949219,451.910156 340.868164,497.24707 374.706055,533.135742 C408.543945,569.024414 455.492188,586.96875 515.550781,586.96875 L515.550781,586.96875 L563.451172,586.96875 C597.728516,586.96875 622.484375,595.68457 637.71875,613.116211 C652.953125,630.547852 660.570312,653.472656 660.570312,681.890625 C660.570312,710.308594 650.389648,733.233398 630.02832,750.665039 C609.666992,768.09668 577.367188,776.8125 533.128906,776.8125 C464.28125,776.8125 411.546875,764.214844 374.925781,739.019531 L374.925781,739.019531 L349.876953,758.355469 C370.677734,774.46875 397.118164,786.84668 429.198242,795.489258 C461.27832,804.131836 495.921875,808.453125 533.128906,808.453125 Z M533.128906,871.734375 C603.441406,871.734375 658.080078,853.790039 697.044922,817.901367 C736.009766,782.012695 755.492188,736.675781 755.492188,681.890625 C755.492188,627.984375 738.719727,582.867188 705.174805,546.539062 C671.629883,510.210938 625.121094,492.046875 565.648438,492.046875 L565.648438,492.046875 L515.550781,492.046875 C481.273438,492.046875 456.59082,483.404297 441.50293,466.119141 C426.415039,448.833984 418.871094,425.835938 418.871094,397.125 C418.871094,368.707031 429.051758,345.782227 449.413086,328.350586 C469.774414,310.918945 502.074219,302.203125 546.3125,302.203125 C614.867188,302.203125 667.455078,314.800781 704.076172,339.996094 L704.076172,339.996094 L729.125,320.660156 C708.324219,304.546875 681.957031,292.168945 650.023438,283.526367 C618.089844,274.883789 583.519531,270.5625 546.3125,270.5625 C493.285156,270.5625 453.514648,282.28125 427.000977,305.71875 C400.487305,329.15625 387.230469,359.625 387.230469,397.125 C387.230469,434.625 397.923828,465.09375 419.310547,488.53125 C440.697266,511.96875 472.777344,523.6875 515.550781,523.6875 L515.550781,523.6875 L565.208984,523.6875 C616.185547,523.6875 655.370117,538.628906 682.762695,568.511719 C710.155273,598.394531 723.851562,636.1875 723.851562,681.890625 C723.851562,728.179688 707.518555,766.119141 674.852539,795.708984 C642.186523,825.298828 594.945312,840.09375 533.128906,840.09375 C491.234375,840.09375 452.049805,834.673828 415.575195,823.833984 C379.100586,812.994141 348.851562,797.759766 324.828125,778.130859 L324.828125,778.130859 L300.21875,797.90625 C327.171875,821.34375 361.009766,839.507812 401.732422,852.398438 C442.455078,865.289062 486.253906,871.734375 533.128906,871.734375 Z M533.128906,935.015625 C569.164062,935.015625 602.635742,930.694336 633.543945,922.051758 C664.452148,913.40918 691.112305,901.397461 713.524414,886.016602 C735.936523,870.635742 755.125977,852.398438 771.092773,831.304688 C787.05957,810.210938 798.998047,787.066406 806.908203,761.871094 C814.818359,736.675781 818.773438,710.015625 818.773438,681.890625 C818.773438,647.320312 813.353516,614.874023 802.513672,584.551758 C791.673828,554.229492 776,527.422852 755.492188,504.131836 C734.984375,480.84082 708.836914,462.457031 677.049805,448.980469 C645.262695,435.503906 609.59375,428.765625 570.042969,428.765625 L570.042969,428.765625 L515.550781,428.765625 C502.953125,428.765625 494.310547,425.982422 489.623047,420.416016 C484.935547,414.849609 482.591797,407.085938 482.591797,397.125 C482.591797,387.164062 486.913086,379.400391 495.555664,373.833984 C504.198242,368.267578 521.117188,365.484375 546.3125,365.484375 C597.875,365.484375 633.910156,370.171875 654.417969,379.546875 L654.417969,379.546875 L679.90625,360.210938 C650.023438,342.632812 605.492188,333.84375 546.3125,333.84375 C483.324219,333.84375 451.830078,354.9375 451.830078,397.125 C451.830078,416.167969 456.810547,431.475586 466.771484,443.047852 C476.732422,454.620117 492.992188,460.40625 515.550781,460.40625 L515.550781,460.40625 L568.724609,460.40625 C614.427734,460.40625 654.051758,470.660156 687.59668,491.167969 C721.141602,511.675781 746.117188,538.40918 762.523438,571.368164 C778.929688,604.327148 787.132812,641.167969 787.132812,681.890625 C787.132812,712.652344 781.493164,741.363281 770.213867,768.023438 C758.93457,794.683594 742.821289,818.121094 721.874023,838.335938 C700.926758,858.550781 674.266602,874.444336 641.893555,886.016602 C609.520508,897.588867 573.265625,903.375 533.128906,903.375 C481.859375,903.375 433.739258,895.977539 388.768555,881.182617 C343.797852,866.387695 306.371094,845.513672 276.488281,818.560547 L276.488281,818.560547 L251,837.457031 C283.8125,868.21875 324.901367,892.168945 374.266602,909.307617 C423.631836,926.446289 476.585938,935.015625 533.128906,935.015625 Z" id="path-1"></path>
        <filter x="-0.8%" y="-0.4%" width="102.3%" height="101.5%" filterUnits="objectBoundingBox" id="filter-2">
            <feMorphology radius="0.5" operator="dilate" in="SourceAlpha" result="shadowSpreadOuter1"></feMorphology>
            <feOffset dx="2" dy="3" in="shadowSpreadOuter1" result="shadowOffsetOuter1"></feOffset>
            <feGaussianBlur stdDeviation="1" in="shadowOffsetOuter1" result="shadowBlurOuter1"></feGaussianBlur>
            <feColorMatrix values="0 0 0 0 0   0 0 0 0 0   0 0 0 0 0  0 0 0 0.671179285 0" type="matrix" in="shadowBlurOuter1"></feColorMatrix>
        </filter>
        <path d="M533.128906,745.171875 C596.117188,745.171875 627.611328,724.078125 627.611328,681.890625 C627.611328,663.140625 622.630859,647.90625 612.669922,636.1875 C602.708984,624.46875 586.449219,618.609375 563.890625,618.609375 L515.550781,618.609375 C468.675781,618.609375 428.099609,608.575195 393.822266,588.506836 C359.544922,568.438477 334.056641,541.851562 317.357422,508.746094 C300.658203,475.640625 292.308594,438.433594 292.308594,397.125 C292.308594,366.363281 297.948242,337.652344 309.227539,310.992188 C320.506836,284.332031 336.620117,260.894531 357.567383,240.679688 C378.514648,220.464844 405.174805,204.571289 437.547852,192.999023 C469.920898,181.426758 506.175781,175.640625 546.3125,175.640625 C597.582031,175.640625 645.628906,183.038086 690.453125,197.833008 C735.277344,212.62793 772.630859,233.501953 802.513672,260.455078 L828.001953,241.558594 C795.189453,210.796875 754.173828,186.84668 704.955078,169.708008 C655.736328,152.569336 602.855469,144 546.3125,144 C510.277344,144 476.805664,148.321289 445.897461,156.963867 C414.989258,165.606445 388.329102,177.618164 365.916992,192.999023 C343.504883,208.379883 324.31543,226.617188 308.348633,247.710938 C292.381836,268.804688 280.443359,291.949219 272.533203,317.144531 C264.623047,342.339844 260.667969,369 260.667969,397.125 C260.667969,432.28125 266.234375,465.09375 277.367188,495.5625 C288.5,526.03125 304.540039,552.837891 325.487305,575.982422 C346.43457,599.126953 373.241211,617.291016 405.907227,630.474609 C438.573242,643.658203 475.121094,650.25 515.550781,650.25 L563.011719,650.25 C575.902344,650.25 584.764648,653.106445 589.598633,658.819336 C594.432617,664.532227 596.849609,672.222656 596.849609,681.890625 C596.849609,691.851562 592.52832,699.615234 583.885742,705.181641 C575.243164,710.748047 558.324219,713.53125 533.128906,713.53125 C481.273438,713.53125 445.091797,708.84375 424.583984,699.46875 L399.095703,718.804688 C428.978516,736.382812 473.65625,745.171875 533.128906,745.171875 Z M533.128906,808.453125 C586.15625,808.453125 625.926758,796.734375 652.44043,773.296875 C678.954102,749.859375 692.210938,719.390625 692.210938,681.890625 C692.210938,644.976562 681.517578,614.654297 660.130859,590.923828 C638.744141,567.193359 606.664062,555.328125 563.890625,555.328125 L563.890625,555.328125 L515.550781,555.328125 C463.988281,555.328125 424.4375,540.459961 396.898438,510.723633 C369.359375,480.987305 355.589844,443.121094 355.589844,397.125 C355.589844,350.835938 371.922852,312.896484 404.588867,283.306641 C437.254883,253.716797 484.496094,238.921875 546.3125,238.921875 C588.207031,238.921875 627.318359,244.341797 663.646484,255.181641 C699.974609,266.021484 730.150391,281.255859 754.173828,300.884766 L754.173828,300.884766 L778.783203,281.109375 C751.830078,257.671875 718.06543,239.507812 677.489258,226.617188 C636.913086,213.726562 593.1875,207.28125 546.3125,207.28125 C476,207.28125 421.361328,225.225586 382.396484,261.114258 C343.431641,297.00293 323.949219,342.339844 323.949219,397.125 C323.949219,451.910156 340.868164,497.24707 374.706055,533.135742 C408.543945,569.024414 455.492188,586.96875 515.550781,586.96875 L515.550781,586.96875 L563.451172,586.96875 C597.728516,586.96875 622.484375,595.68457 637.71875,613.116211 C652.953125,630.547852 660.570312,653.472656 660.570312,681.890625 C660.570312,710.308594 650.389648,733.233398 630.02832,750.665039 C609.666992,768.09668 577.367188,776.8125 533.128906,776.8125 C464.28125,776.8125 411.546875,764.214844 374.925781,739.019531 L374.925781,739.019531 L349.876953,758.355469 C370.677734,774.46875 397.118164,786.84668 429.198242,795.489258 C461.27832,804.131836 495.921875,808.453125 533.128906,808.453125 Z M533.128906,871.734375 C603.441406,871.734375 658.080078,853.790039 697.044922,817.901367 C736.009766,782.012695 755.492188,736.675781 755.492188,681.890625 C755.492188,627.984375 738.719727,582.867188 705.174805,546.539062 C671.629883,510.210938 625.121094,492.046875 565.648438,492.046875 L565.648438,492.046875 L515.550781,492.046875 C481.273438,492.046875 456.59082,483.404297 441.50293,466.119141 C426.415039,448.833984 418.871094,425.835938 418.871094,397.125 C418.871094,368.707031 429.051758,345.782227 449.413086,328.350586 C469.774414,310.918945 502.074219,302.203125 546.3125,302.203125 C614.867188,302.203125 667.455078,314.800781 704.076172,339.996094 L704.076172,339.996094 L729.125,320.660156 C708.324219,304.546875 681.957031,292.168945 650.023438,283.526367 C618.089844,274.883789 583.519531,270.5625 546.3125,270.5625 C493.285156,270.5625 453.514648,282.28125 427.000977,305.71875 C400.487305,329.15625 387.230469,359.625 387.230469,397.125 C387.230469,434.625 397.923828,465.09375 419.310547,488.53125 C440.697266,511.96875 472.777344,523.6875 515.550781,523.6875 L515.550781,523.6875 L565.208984,523.6875 C616.185547,523.6875 655.370117,538.628906 682.762695,568.511719 C710.155273,598.394531 723.851562,636.1875 723.851562,681.890625 C723.851562,728.179688 707.518555,766.119141 674.852539,795.708984 C642.186523,825.298828 594.945312,840.09375 533.128906,840.09375 C491.234375,840.09375 452.049805,834.673828 415.575195,823.833984 C379.100586,812.994141 348.851562,797.759766 324.828125,778.130859 L324.828125,778.130859 L300.21875,797.90625 C327.171875,821.34375 361.009766,839.507812 401.732422,852.398438 C442.455078,865.289062 486.253906,871.734375 533.128906,871.734375 Z M533.128906,935.015625 C569.164062,935.015625 602.635742,930.694336 633.543945,922.051758 C664.452148,913.40918 691.112305,901.397461 713.524414,886.016602 C735.936523,870.635742 755.125977,852.398438 771.092773,831.304688 C787.05957,810.210938 798.998047,787.066406 806.908203,761.871094 C814.818359,736.675781 818.773438,710.015625 818.773438,681.890625 C818.773438,647.320312 813.353516,614.874023 802.513672,584.551758 C791.673828,554.229492 776,527.422852 755.492188,504.131836 C734.984375,480.84082 708.836914,462.457031 677.049805,448.980469 C645.262695,435.503906 609.59375,428.765625 570.042969,428.765625 L570.042969,428.765625 L515.550781,428.765625 C502.953125,428.765625 494.310547,425.982422 489.623047,420.416016 C484.935547,414.849609 482.591797,407.085938 482.591797,397.125 C482.591797,387.164062 486.913086,379.400391 495.555664,373.833984 C504.198242,368.267578 521.117188,365.484375 546.3125,365.484375 C597.875,365.484375 633.910156,370.171875 654.417969,379.546875 L654.417969,379.546875 L679.90625,360.210938 C650.023438,342.632812 605.492188,333.84375 546.3125,333.84375 C483.324219,333.84375 451.830078,354.9375 451.830078,397.125 C451.830078,416.167969 456.810547,431.475586 466.771484,443.047852 C476.732422,454.620117 492.992188,460.40625 515.550781,460.40625 L515.550781,460.40625 L568.724609,460.40625 C614.427734,460.40625 654.051758,470.660156 687.59668,491.167969 C721.141602,511.675781 746.117188,538.40918 762.523438,571.368164 C778.929688,604.327148 787.132812,641.167969 787.132812,681.890625 C787.132812,712.652344 781.493164,741.363281 770.213867,768.023438 C758.93457,794.683594 742.821289,818.121094 721.874023,838.335938 C700.926758,858.550781 674.266602,874.444336 641.893555,886.016602 C609.520508,897.588867 573.265625,903.375 533.128906,903.375 C481.859375,903.375 433.739258,895.977539 388.768555,881.182617 C343.797852,866.387695 306.371094,845.513672 276.488281,818.560547 L276.488281,818.560547 L251,837.457031 C283.8125,868.21875 324.901367,892.168945 374.266602,909.307617 C423.631836,926.446289 476.585938,935.015625 533.128906,935.015625 Z" id="path-3"></path>
        <filter x="-0.8%" y="-0.4%" width="102.3%" height="101.5%" filterUnits="objectBoundingBox" id="filter-4">
            <feMorphology radius="0.5" operator="dilate" in="SourceAlpha" result="shadowSpreadOuter1"></feMorphology>
            <feOffset dx="2" dy="3" in="shadowSpreadOuter1" result="shadowOffsetOuter1"></feOffset>
            <feGaussianBlur stdDeviation="1" in="shadowOffsetOuter1" result="shadowBlurOuter1"></feGaussianBlur>
            <feColorMatrix values="0 0 0 0 0   0 0 0 0 0   0 0 0 0 0  0 0 0 0.671179285 0" type="matrix" in="shadowBlurOuter1"></feColorMatrix>
        </filter>
    </defs>
    <g id="samstep-light-t" stroke="none" stroke-width="1" fill="none" fill-rule="evenodd">
        <g id="S" fill-rule="nonzero">
            <use fill="black" fill-opacity="1" filter="url(#filter-2)" xlink:href="#path-1"></use>
            <use fill="#FFFFFF" xlink:href="#path-1"></use>
        </g>
        <g id="S" fill-rule="nonzero">
            <use fill="black" fill-opacity="1" filter="url(#filter-4)" xlink:href="#path-3"></use>
            <use fill="#FFFFFF" xlink:href="#path-3"></use>
        </g>
        <path d="M533.128906,745.171875 C596.117188,745.171875 627.611328,724.078125 627.611328,681.890625 C627.611328,663.140625 622.630859,647.90625 612.669922,636.1875 C602.708984,624.46875 586.449219,618.609375 563.890625,618.609375 L515.550781,618.609375 C468.675781,618.609375 428.099609,608.575195 393.822266,588.506836 C359.544922,568.438477 334.056641,541.851562 317.357422,508.746094 C300.658203,475.640625 292.308594,438.433594 292.308594,397.125 C292.308594,366.363281 297.948242,337.652344 309.227539,310.992188 C320.506836,284.332031 336.620117,260.894531 357.567383,240.679688 C378.514648,220.464844 405.174805,204.571289 437.547852,192.999023 C469.920898,181.426758 506.175781,175.640625 546.3125,175.640625 C597.582031,175.640625 645.628906,183.038086 690.453125,197.833008 C735.277344,212.62793 772.630859,233.501953 802.513672,260.455078 L828.001953,241.558594 C795.189453,210.796875 754.173828,186.84668 704.955078,169.708008 C655.736328,152.569336 602.855469,144 546.3125,144 C510.277344,144 476.805664,148.321289 445.897461,156.963867 C414.989258,165.606445 388.329102,177.618164 365.916992,192.999023 C343.504883,208.379883 324.31543,226.617188 308.348633,247.710938 C292.381836,268.804688 280.443359,291.949219 272.533203,317.144531 C264.623047,342.339844 260.667969,369 260.667969,397.125 C260.667969,432.28125 266.234375,465.09375 277.367188,495.5625 C288.5,526.03125 304.540039,552.837891 325.487305,575.982422 C346.43457,599.126953 373.241211,617.291016 405.907227,630.474609 C438.573242,643.658203 475.121094,650.25 515.550781,650.25 L563.011719,650.25 C575.902344,650.25 584.764648,653.106445 589.598633,658.819336 C594.432617,664.532227 596.849609,672.222656 596.849609,681.890625 C596.849609,691.851562 592.52832,699.615234 583.885742,705.181641 C575.243164,710.748047 558.324219,713.53125 533.128906,713.53125 C481.273438,713.53125 445.091797,708.84375 424.583984,699.46875 L399.095703,718.804688 C428.978516,736.382812 473.65625,745.171875 533.128906,745.171875 Z" id="Path"></path>
        <path d="M533.128906,808.453125 C586.15625,808.453125 625.926758,796.734375 652.44043,773.296875 C678.954102,749.859375 692.210938,719.390625 692.210938,681.890625 C692.210938,644.976562 681.517578,614.654297 660.130859,590.923828 C638.744141,567.193359 606.664062,555.328125 563.890625,555.328125 L563.890625,555.328125 L515.550781,555.328125 C463.988281,555.328125 424.4375,540.459961 396.898438,510.723633 C369.359375,480.987305 355.589844,443.121094 355.589844,397.125 C355.589844,350.835938 371.922852,312.896484 404.588867,283.306641 C437.254883,253.716797 484.496094,238.921875 546.3125,238.921875 C588.207031,238.921875 627.318359,244.341797 663.646484,255.181641 C699.974609,266.021484 730.150391,281.255859 754.173828,300.884766 L754.173828,300.884766 L778.783203,281.109375 C751.830078,257.671875 718.06543,239.507812 677.489258,226.617188 C636.913086,213.726562 593.1875,207.28125 546.3125,207.28125 C476,207.28125 421.361328,225.225586 382.396484,261.114258 C343.431641,297.00293 323.949219,342.339844 323.949219,397.125 C323.949219,451.910156 340.868164,497.24707 374.706055,533.135742 C408.543945,569.024414 455.492188,586.96875 515.550781,586.96875 L515.550781,586.96875 L563.451172,586.96875 C597.728516,586.96875 622.484375,595.68457 637.71875,613.116211 C652.953125,630.547852 660.570312,653.472656 660.570312,681.890625 C660.570312,710.308594 650.389648,733.233398 630.02832,750.665039 C609.666992,768.09668 577.367188,776.8125 533.128906,776.8125 C464.28125,776.8125 411.546875,764.214844 374.925781,739.019531 L374.925781,739.019531 L349.876953,758.355469 C370.677734,774.46875 397.118164,786.84668 429.198242,795.489258 C461.27832,804.131836 495.921875,808.453125 533.128906,808.453125 Z" id="Path"></path>
        <path d="M533.128906,871.734375 C603.441406,871.734375 658.080078,853.790039 697.044922,817.901367 C736.009766,782.012695 755.492188,736.675781 755.492188,681.890625 C755.492188,627.984375 738.719727,582.867188 705.174805,546.539062 C671.629883,510.210938 625.121094,492.046875 565.648438,492.046875 L565.648438,492.046875 L515.550781,492.046875 C481.273438,492.046875 456.59082,483.404297 441.50293,466.119141 C426.415039,448.833984 418.871094,425.835938 418.871094,397.125 C418.871094,368.707031 429.051758,345.782227 449.413086,328.350586 C469.774414,310.918945 502.074219,302.203125 546.3125,302.203125 C614.867188,302.203125 667.455078,314.800781 704.076172,339.996094 L704.076172,339.996094 L729.125,320.660156 C708.324219,304.546875 681.957031,292.168945 650.023438,283.526367 C618.089844,274.883789 583.519531,270.5625 546.3125,270.5625 C493.285156,270.5625 453.514648,282.28125 427.000977,305.71875 C400.487305,329.15625 387.230469,359.625 387.230469,397.125 C387.230469,434.625 397.923828,465.09375 419.310547,488.53125 C440.697266,511.96875 472.777344,523.6875 515.550781,523.6875 L515.550781,523.6875 L565.208984,523.6875 C616.185547,523.6875 655.370117,538.628906 682.762695,568.511719 C710.155273,598.394531 723.851562,636.1875 723.851562,681.890625 C723.851562,728.179688 707.518555,766.119141 674.852539,795.708984 C642.186523,825.298828 594.945312,840.09375 533.128906,840.09375 C491.234375,840.09375 452.049805,834.673828 415.575195,823.833984 C379.100586,812.994141 348.851562,797.759766 324.828125,778.130859 L324.828125,778.130859 L300.21875,797.90625 C327.171875,821.34375 361.009766,839.507812 401.732422,852.398438 C442.455078,865.289062 486.253906,871.734375 533.128906,871.734375 Z" id="Path"></path>
        <path d="M533.128906,935.015625 C569.164062,935.015625 602.635742,930.694336 633.543945,922.051758 C664.452148,913.40918 691.112305,901.397461 713.524414,886.016602 C735.936523,870.635742 755.125977,852.398438 771.092773,831.304688 C787.05957,810.210938 798.998047,787.066406 806.908203,761.871094 C814.818359,736.675781 818.773438,710.015625 818.773438,681.890625 C818.773438,647.320312 813.353516,614.874023 802.513672,584.551758 C791.673828,554.229492 776,527.422852 755.492188,504.131836 C734.984375,480.84082 708.836914,462.457031 677.049805,448.980469 C645.262695,435.503906 609.59375,428.765625 570.042969,428.765625 L570.042969,428.765625 L515.550781,428.765625 C502.953125,428.765625 494.310547,425.982422 489.623047,420.416016 C484.935547,414.849609 482.591797,407.085938 482.591797,397.125 C482.591797,387.164062 486.913086,379.400391 495.555664,373.833984 C504.198242,368.267578 521.117188,365.484375 546.3125,365.484375 C597.875,365.484375 633.910156,370.171875 654.417969,379.546875 L654.417969,379.546875 L679.90625,360.210938 C650.023438,342.632812 605.492188,333.84375 546.3125,333.84375 C483.324219,333.84375 451.830078,354.9375 451.830078,397.125 C451.830078,416.167969 456.810547,431.475586 466.771484,443.047852 C476.732422,454.620117 492.992188,460.40625 515.550781,460.40625 L515.550781,460.40625 L568.724609,460.40625 C614.427734,460.40625 654.051758,470.660156 687.59668,491.167969 C721.141602,511.675781 746.117188,538.40918 762.523438,571.368164 C778.929688,604.327148 787.132812,641.167969 787.132812,681.890625 C787.132812,712.652344 781.493164,741.363281 770.213867,768.023438 C758.93457,794.683594 742.821289,818.121094 721.874023,838.335938 C700.926758,858.550781 674.266602,874.444336 641.893555,886.016602 C609.520508,897.588867 573.265625,903.375 533.128906,903.375 C481.859375,903.375 433.739258,895.977539 388.768555,881.182617 C343.797852,866.387695 306.371094,845.513672 276.488281,818.560547 L276.488281,818.560547 L251,837.457031 C283.8125,868.21875 324.901367,892.168945 374.266602,909.307617 C423.631836,926.446289 476.585938,935.015625 533.128906,935.015625 Z" id="Path"></path>
    </g>
</svg>